<svg id="Bold" enable-background="new 0 0 24 24" height="512" viewBox="0 0 24 24" width="512" xmlns="http://www.w3.org/2000/svg"><path d="m23.76 13.778-1.223-1.429c-.381-.443-1.141-.444-1.52 0l-1.222 1.429c-.254.297-.312.714-.148 1.068.16.349.506.571.889.579-.837 3.455-3.838 6.105-7.537 6.515v-12.19h1.25c.553 0 1-.448 1-1s-.447-1-1-1h-1.249v-1.424c1.301-.425 2.25-1.635 2.25-3.076 0-1.792-1.458-3.25-3.25-3.25s-3.25 1.458-3.25 3.25c0 1.441.949 2.652 2.25 3.076v1.424h-1.25c-.553 0-1 .448-1 1s.447 1 1 1h1.25v12.19c-3.698-.41-6.699-3.06-7.537-6.515.383-.008.729-.23.889-.579.163-.354.105-.771-.148-1.068l-1.222-1.428c-.189-.222-.467-.35-.759-.35s-.569.128-.76.35l-1.223 1.428c-.254.297-.312.714-.148 1.069.163.355.517.582.908.582h.416c.941 4.872 5.326 8.571 10.584 8.571s9.643-3.699 10.584-8.571h.416c.391 0 .745-.227.908-.582s.106-.772-.148-1.069zm-11.76-11.778c.689 0 1.25.561 1.25 1.25s-.561 1.25-1.25 1.25-1.25-.561-1.25-1.25.561-1.25 1.25-1.25z"/></svg>